<?xml version="1.0" encoding="UTF-8" standalone="no"?><!DOCTYPE svg PUBLIC "-//W3C//DTD SVG 1.1//EN" "http://www.w3.org/Graphics/SVG/1.1/DTD/svg11.dtd"><svg width="100%" height="100%" viewBox="0 0 2780 2780" version="1.1" xmlns="http://www.w3.org/2000/svg" xmlns:xlink="http://www.w3.org/1999/xlink" xml:space="preserve" xmlns:serif="http://www.serif.com/" style="fill-rule:evenodd;clip-rule:evenodd;stroke-miterlimit:10;"><g><circle cx="1388.888" cy="1388.888" r="821.179" style="fill:#fff;stroke:#de0000;stroke-width:130.21px;"/></g><g><path d="M1098.092,983.854c28.646,-33.854 63.717,-75.175 113.196,-75.175c53.646,0 91.146,48.783 117.363,82.638c59.375,77.083 62.675,161.112 63.367,186.112c1.388,50.867 3.125,119.446 -47.396,172.917c-51.388,54.688 -122.05,56.425 -133.333,56.425c-8.854,0 -33.508,-0.346 -63.196,-10.592c-3.471,-1.217 -43.575,-15.45 -73.783,-46.008c-56.946,-57.467 -51.562,-144.792 -49.479,-182.292c1.042,-19.096 7.812,-106.596 73.263,-184.029l-0,0.004Z" style="fill:#de0000;fill-rule:nonzero;"/><path d="M1132.987,1799.479c-0.696,6.596 -1.908,24.654 8.333,43.229c12.5,22.571 33.333,30.729 39.583,32.987c32.292,11.979 60.763,-2.604 65.971,-5.383c20.138,-10.763 29.688,-26.908 31.946,-30.904c10.592,-18.75 10.417,-36.804 9.896,-43.75c-5.904,-134.029 -11.804,-267.883 -17.883,-401.908c-40.971,0.696 -81.946,1.562 -122.917,2.258c-4.862,134.721 -9.896,269.096 -14.929,403.471Z" style="fill:#de0000;fill-rule:nonzero;"/><path d="M1528.125,1790.104c-0.696,7.467 -1.908,27.429 8.333,48.263c12.5,25.175 33.333,34.2 39.583,36.804c32.292,13.367 60.763,-2.779 65.971,-6.075c20.138,-11.979 29.688,-30.033 31.946,-34.375c10.592,-21.008 10.417,-40.971 9.896,-48.958c-5.904,-149.479 -11.804,-299.133 -17.883,-448.612c-40.971,0.867 -81.946,1.737 -122.917,2.604c-4.862,150.175 -9.896,300.175 -14.929,450.346l0,0.004Z" style="fill:#de0000;fill-rule:nonzero;"/><path d="M1463.367,910.592l48.612,0c5.208,92.883 10.417,185.592 15.625,278.471c2.95,8.333 10.763,13.888 19.446,13.717c8.508,-0.175 16.146,-5.554 18.925,-13.717c3.125,-92.883 6.425,-185.592 9.55,-278.471l57.638,0c4.513,93.229 9.029,186.458 13.542,279.688c2.95,8.679 11.458,14.237 20.312,13.542c8.508,-0.696 15.625,-6.771 17.708,-15.104c3.646,-92.708 7.467,-185.417 11.112,-278.3l50,0c0.867,34.029 1.737,68.054 2.604,102.083c1.908,25.867 3.992,62.154 5.033,105.729c2.258,100.867 -4.167,123.092 -7.987,134.2c-7.987,22.917 -27.429,63.367 -81.075,101.562c-13.021,4.167 -32.117,8.679 -55.554,8.854c-9.721,0 -37.154,0 -63.196,-10.592c-57.292,-23.438 -78.992,-86.458 -83.158,-98.612c-7.292,-21.354 -6.946,-58.333 -5.729,-131.425c0.521,-36.283 1.737,-54.342 3.3,-106.25c1.908,-44.792 2.779,-81.25 3.3,-105.383l-0.008,0.008Z" style="fill:#de0000;fill-rule:nonzero;"/></g></svg>