<?xml version="1.0" encoding="UTF-8" standalone="no"?><!DOCTYPE svg PUBLIC "-//W3C//DTD SVG 1.1//EN" "http://www.w3.org/Graphics/SVG/1.1/DTD/svg11.dtd"><svg width="100%" height="100%" viewBox="0 0 2780 2780" version="1.1" xmlns="http://www.w3.org/2000/svg" xmlns:xlink="http://www.w3.org/1999/xlink" xml:space="preserve" xmlns:serif="http://www.serif.com/" style="fill-rule:evenodd;clip-rule:evenodd;stroke-miterlimit:10;"><circle cx="1388.888" cy="1388.888" r="821.179" style="fill:#fff;stroke:#9f7300;stroke-width:130.21px;"/><g><rect x="999.133" y="1314.929" width="152.95" height="329.342" style="fill:#9f7300;"/><rect x="1312.5" y="1314.929" width="152.95" height="329.342" style="fill:#9f7300;"/><rect x="1625.696" y="1314.929" width="152.95" height="329.342" style="fill:#9f7300;"/><path d="M1813.196,1699.825l0,69.446c0,6.25 -5.208,11.458 -11.458,11.458l-827.604,0c-6.25,0 -11.458,-5.208 -11.458,-11.458l0,-69.446c0,-6.25 5.208,-11.458 11.458,-11.458l827.604,0c6.425,-0.175 11.458,5.033 11.458,11.458Z" style="fill:#9f7300;fill-rule:nonzero;"/><path d="M1880.554,1778.3l0,102.95c0,6.25 -5.208,11.458 -11.458,11.458l-960.417,0c-6.25,0 -11.458,-5.208 -11.458,-11.458l0,-102.95c0,-6.25 5.208,-11.458 11.458,-11.458l960.242,0c6.425,0 11.633,5.208 11.633,11.458Z" style="fill:#9f7300;fill-rule:nonzero;"/><path d="M1814.237,1195.138l0,69.446c0,6.25 -5.208,11.458 -11.458,11.458l-827.779,0c-6.25,0 -11.458,-5.208 -11.458,-11.458l0,-69.446c0,-6.25 5.208,-11.458 11.458,-11.458l827.604,0c6.425,0 11.633,5.208 11.633,11.458Z" style="fill:#9f7300;fill-rule:nonzero;"/><path d="M1855.208,1097.917l0,93.229c0,6.25 -5.208,11.458 -11.458,11.458l-910.938,0c-6.25,0 -11.458,-5.208 -11.458,-11.458l0,-93.229c0,-6.25 5.208,-11.458 11.458,-11.458l910.938,0c6.425,0 11.458,5.208 11.458,11.458Z" style="fill:#9f7300;fill-rule:nonzero;"/><path d="M1387.675,885.071l233.508,100.696l226.388,101.908l-459.896,1.042l-460.071,-1.042l226.387,-101.908l233.679,-100.696l0.004,-0Z" style="fill:#9f7300;fill-rule:nonzero;"/></g></svg>